<?xml version="1.0" encoding="UTF-8"?>
<svg width="500" height="500" viewBox="0 0 500 500" fill="none" xmlns="http://www.w3.org/2000/svg">
  <path d="M250 50C138.5 50 48 140.5 48 252C48 341.5 108.5 417 191.5 445C203.5 447.5 207.5 440 207.5 433.5V397.5C147.5 410.5 134.5 373 134.5 373C124.5 348.5 110.5 341.5 110.5 341.5C91 328.5 112.5 328.5 112.5 328.5C134.5 330 146.5 351.5 146.5 351.5C166.5 386.5 201.5 375 208.5 368.5C211 354.5 217.5 345 224.5 340C177.5 335 128.5 316 128.5 238.5C128.5 214 137.5 194 147.5 178.5C145 173 137.5 153 147.5 123.5C147.5 123.5 167.5 118.5 207.5 145.5C223.5 141.5 241 139.5 258.5 139.5C276 139.5 293.5 141.5 309.5 145.5C349.5 118.5 369.5 123.5 369.5 123.5C379.5 153 372 173 369.5 178.5C379.5 194 388.5 214 388.5 238.5C388.5 316 339.5 335 292.5 340C301.5 346.5 309.5 358.5 309.5 378.5V433.5C309.5 440 313.5 447.5 325.5 445C408.5 417 469 341.5 469 252C469 140.5 378.5 50 267 50H250Z" fill="#1A1A1A"/>
</svg>
