<svg width="595" height="451" viewBox="0 0 595 451" fill="none" xmlns="http://www.w3.org/2000/svg">
<path d="M565.208 325.333C563.308 328.777 559.77 331.268 554.674 332.813C549.577 334.359 542.965 334.943 535.003 334.6C519.083 333.913 497.881 329.524 472.867 321.868C422.846 306.558 357.684 278.216 289.245 240.465C220.806 202.715 162.072 162.717 122.44 128.575C102.62 111.501 87.5982 95.9094 78.5246 82.8096C73.9872 76.2589 70.9538 70.3547 69.542 65.2182C68.1308 60.0842 68.3505 55.7625 70.2501 52.3186C72.1496 48.8748 75.6879 46.3836 80.7833 44.8385C85.881 43.2927 92.4931 42.7089 100.454 43.0523C116.375 43.7391 137.577 48.1278 162.591 55.7839C212.611 71.0937 277.773 99.436 346.213 137.187C414.652 174.937 473.385 214.934 513.018 249.077C532.837 266.15 547.859 281.742 556.933 294.842C561.47 301.393 564.504 307.297 565.916 312.434C567.327 317.568 567.107 321.889 565.208 325.333Z" stroke="black"/>
<path d="M544.977 362.007C543.078 365.451 539.539 367.942 534.444 369.487C529.346 371.033 522.734 371.617 514.773 371.273C498.852 370.587 477.651 366.198 452.636 358.542C402.616 343.232 337.454 314.89 269.015 277.139C200.575 239.388 141.842 199.391 102.209 165.249C82.3898 148.175 67.3677 132.583 58.2941 119.483C53.7567 112.933 50.7234 107.029 49.3115 101.892C47.9003 96.758 48.12 92.4363 50.0196 88.9925C51.9192 85.5487 55.4575 83.0575 60.5528 81.5124C65.6506 79.9665 72.2627 79.3827 80.2239 79.7261C96.1444 80.4129 117.346 84.8017 142.36 92.4578C192.381 107.767 257.543 136.11 325.982 173.86C394.422 211.611 453.155 251.608 492.787 285.75C512.607 302.824 527.629 318.416 536.703 331.516C541.24 338.067 544.273 343.971 545.685 349.107C547.096 354.241 546.877 358.563 544.977 362.007Z" stroke="black"/>
<path d="M524.749 398.681C522.849 402.125 519.311 404.616 514.215 406.161C509.118 407.707 502.506 408.291 494.544 407.948C478.624 407.261 457.422 402.872 432.408 395.216C382.387 379.906 317.225 351.564 248.786 313.813C180.347 276.063 121.613 236.066 81.9809 201.923C62.1614 184.85 47.1393 169.258 38.0657 156.158C33.5283 149.607 30.4949 143.703 29.0831 138.566C27.6719 133.432 27.8916 129.111 29.7911 125.667C31.6907 122.223 35.229 119.732 40.3244 118.187C45.4221 116.641 52.0342 116.057 59.9955 116.4C75.916 117.087 97.1177 121.476 122.132 129.132C172.152 144.442 237.314 172.784 305.754 210.535C374.193 248.285 432.926 288.283 472.559 322.425C492.378 339.499 507.401 355.091 516.474 368.19C521.012 374.741 524.045 380.645 525.457 385.782C526.868 390.916 526.648 395.237 524.749 398.681Z" stroke="black"/>
<circle cx="132.127" cy="40.5" r="15.5" fill="#B9FF66"/>
<circle cx="421.627" cy="371" r="10" fill="#B9FF66"/>
<rect x="122.09" y="41.0002" width="343.5" height="343.5" rx="171.75" fill="white"/>
<path d="M219.057 132.374L217.684 131.769C212.365 143.845 211.744 157.459 215.92 169.953C206.432 180.632 201.266 194.479 201.456 208.784C201.458 236.478 209.892 253.714 222.607 264.439C234.474 274.448 249.863 278.606 264.945 280.567C260.823 285.371 258.23 291.321 257.531 297.647C254.377 299.305 250.943 300.371 247.399 300.789C243.599 301.237 239.747 300.931 236.065 299.887C232.384 298.844 228.944 297.085 225.943 294.71C222.943 292.336 220.441 289.393 218.581 286.051C216.246 281.805 212.922 278.185 208.89 275.498C204.857 272.811 200.235 271.136 195.416 270.615L195.326 270.606L195.234 270.607C192.202 270.65 189.981 271.088 188.638 272.074C187.907 272.612 187.405 273.337 187.251 274.216C187.105 275.055 187.306 275.854 187.613 276.527C188.212 277.841 189.408 279.099 190.648 280.144C191.877 281.178 193.293 282.121 194.592 282.828C200.799 288.1 205.643 294.793 208.71 302.339C210.22 306.569 213.448 312.767 221.03 317.018C228.366 321.131 239.556 323.298 256.746 320.409C256.753 325.768 256.792 330.911 256.831 335.181C256.844 336.636 256.857 337.988 256.869 339.212C256.896 341.985 256.917 344.102 256.917 345.272C256.917 346.827 256.362 348.392 255.189 349.433C254.063 350.431 252.137 351.149 248.951 350.612C217.093 339.966 190.054 318.343 172.665 289.602C155.256 260.829 148.654 226.8 154.04 193.604C159.427 160.409 176.45 130.213 202.064 108.421C227.677 86.6287 260.21 74.6623 293.84 74.6631C327.442 74.6814 359.944 86.6408 385.545 108.407C411.145 130.172 428.177 160.328 433.601 193.49C439.024 226.652 432.486 260.662 415.153 289.449C397.837 318.208 370.874 339.885 339.068 350.618C335.89 351.232 333.977 350.513 332.858 349.505C331.68 348.445 331.121 346.834 331.121 345.272C331.121 343.666 331.14 340.884 331.166 337.173C331.178 335.327 331.193 333.25 331.207 330.975C331.25 324.144 331.293 315.527 331.293 305.971C331.683 300.93 330.99 295.863 329.259 291.111C327.859 287.27 325.808 283.708 323.203 280.577C338.305 278.625 353.765 274.51 365.694 264.506C378.455 253.803 386.938 236.566 386.94 208.786C387.173 194.472 382.001 180.608 372.476 169.95C376.652 157.457 376.03 143.844 370.711 131.769L370.441 131.157L369.806 130.949L369.338 132.374C369.806 130.949 369.805 130.948 369.803 130.948L369.8 130.947L369.792 130.944L369.774 130.938C369.76 130.934 369.744 130.929 369.724 130.923C369.685 130.912 369.633 130.898 369.57 130.881C369.444 130.849 369.269 130.808 369.045 130.767C368.598 130.683 367.955 130.594 367.112 130.552C365.425 130.466 362.942 130.568 359.614 131.263C353.052 132.635 343.217 136.314 329.708 145.416C306.448 139.147 281.943 139.148 258.683 145.417C245.168 136.405 235.336 132.729 228.782 131.334C225.457 130.627 222.978 130.508 221.295 130.577C220.454 130.612 219.814 130.693 219.367 130.771C219.144 130.81 218.97 130.848 218.844 130.879C218.781 130.894 218.73 130.908 218.691 130.918C218.671 130.924 218.655 130.929 218.641 130.933L218.623 130.938L218.615 130.94L218.612 130.941C218.611 130.942 218.609 130.942 219.057 132.374Z" fill="#B9FF66" stroke="black" stroke-width="3"/>
<path d="M439.168 109.658C457.3 100.132 464.314 77.7676 454.832 59.7051C445.351 41.6426 422.965 34.7223 404.832 44.2483C386.7 53.7743 379.686 76.1391 389.168 94.2017C398.649 112.264 421.035 119.184 439.168 109.658Z" fill="black"/>
<path d="M405.192 65.5114C406.937 63.1306 409.516 61.6624 412.451 61.345C414.672 61.1069 416.735 61.5831 418.678 62.7735C419.67 63.3687 420.542 64.1226 421.375 65.0353C421.97 63.9639 422.684 63.0116 423.517 62.218C425.143 60.6308 427.087 59.7181 429.269 59.48C432.204 59.1626 435.06 60.0356 437.281 61.9799C439.462 63.8845 440.851 66.6622 441.207 69.7969C441.564 73.011 440.692 76.1061 438.471 79.5186C436.487 82.574 433.473 85.7484 429.982 89.4784C428.793 90.7481 427.444 92.1766 426.056 93.6845C425.699 94.0813 425.183 94.359 424.628 94.3987C424.072 94.4781 423.557 94.3193 423.081 94.0019C421.375 92.8115 419.749 91.7004 418.321 90.7481C414.117 87.8911 410.468 85.431 407.85 82.8914C404.915 80.0741 403.407 77.2171 403.05 74.003C402.733 70.8683 403.487 67.8526 405.192 65.5114Z" fill="#B9FF66"/>
<path d="M541.75 142.78C555.695 128.83 555.695 106.211 541.75 92.2601C527.805 78.3093 505.195 78.3093 491.25 92.2601C477.305 106.211 477.305 128.83 491.25 142.78C505.195 156.731 527.805 156.731 541.75 142.78Z" fill="#B9FF66"/>
<path d="M516.493 154.147C496.326 154.147 479.867 137.723 479.867 117.506C479.867 97.3306 496.285 80.8652 516.493 80.8652C536.702 80.8652 553.119 97.2889 553.119 117.506C553.119 137.681 536.702 154.147 516.493 154.147ZM516.493 82.6994C497.326 82.6994 481.701 98.2893 481.701 117.506C481.701 136.681 497.285 152.312 516.493 152.312C535.661 152.312 551.286 136.722 551.286 117.506C551.286 98.331 535.702 82.6994 516.493 82.6994Z" fill="#B9FF66"/>
<path d="M526.16 121.049C524.16 121.049 522.41 122.008 521.243 123.508L509.201 118.798C509.201 118.631 509.243 118.506 509.243 118.339C509.243 118.048 509.201 117.756 509.159 117.464L521.493 111.753C522.618 113.045 524.285 113.879 526.16 113.921C529.577 113.921 532.41 111.128 532.41 107.668C532.41 104.208 529.618 101.374 526.16 101.374C522.743 101.374 519.91 104.167 519.91 107.626C519.91 107.918 519.951 108.21 519.993 108.502L507.659 114.213C506.534 112.92 504.868 112.087 502.993 112.045C499.576 112.045 496.742 114.838 496.742 118.298C496.742 121.757 499.534 124.592 502.993 124.592C504.993 124.592 506.743 123.633 507.909 122.133L519.951 126.843C519.951 127.01 519.91 127.135 519.91 127.302C519.91 130.761 522.701 133.596 526.16 133.596C529.577 133.596 532.41 130.803 532.41 127.343C532.368 123.883 529.577 121.091 526.16 121.049Z" fill="black"/>
<path d="M542.945 195.023C553.041 209.574 549.368 229.609 534.733 239.771C520.098 249.934 500.05 246.369 489.955 231.819C479.859 217.268 483.533 197.233 498.168 187.07C512.803 176.908 532.85 180.472 542.945 195.023Z" fill="black" stroke="black" stroke-width="0.966526"/>
<path d="M505.625 220.845C505.626 221.672 505.853 222.483 506.283 223.189C506.713 223.896 507.328 224.47 508.063 224.851C508.797 225.231 509.622 225.402 510.447 225.345C511.271 225.288 512.065 225.005 512.74 224.528C513.415 224.05 513.946 223.396 514.275 222.638C514.603 221.879 514.717 221.044 514.604 220.225C514.49 219.406 514.154 218.634 513.631 217.994C513.108 217.353 512.419 216.868 511.64 216.593C511.84 216.133 512.171 215.742 512.59 215.467C513.01 215.192 513.501 215.046 514.002 215.046H523.023C524.39 215.046 525.701 214.503 526.668 213.536C527.635 212.57 528.178 211.258 528.178 209.891V209.704C529.213 209.392 530.103 208.718 530.683 207.806C531.264 206.893 531.497 205.802 531.341 204.732C531.185 203.662 530.65 202.683 529.832 201.974C529.015 201.265 527.971 200.874 526.889 200.87C525.805 200.869 524.757 201.259 523.936 201.968C523.116 202.676 522.578 203.657 522.422 204.73C522.265 205.802 522.501 206.896 523.084 207.809C523.668 208.723 524.561 209.396 525.6 209.704V209.891C525.6 210.575 525.329 211.23 524.845 211.714C524.362 212.197 523.707 212.469 523.023 212.469H514.002C513.063 212.469 512.182 212.72 511.425 213.158V209.704C512.46 209.392 513.349 208.718 513.93 207.806C514.511 206.893 514.744 205.802 514.588 204.732C514.432 203.662 513.897 202.683 513.079 201.974C512.262 201.265 511.218 200.874 510.136 200.87C509.052 200.869 508.004 201.259 507.183 201.968C506.363 202.676 505.825 203.657 505.669 204.73C505.512 205.802 505.747 206.896 506.331 207.809C506.915 208.723 507.808 209.396 508.847 209.704V216.522C507.916 216.799 507.1 217.37 506.519 218.149C505.939 218.928 505.625 219.874 505.625 220.845Z" fill="#B9FF66"/>
<path d="M452.287 203.557C467.805 195.999 474.298 177.365 466.79 161.936C459.282 146.508 440.616 140.127 425.098 147.684C409.58 155.242 403.086 173.876 410.594 189.304C418.102 204.733 436.769 211.114 452.287 203.557Z" fill="#B9FF66"/>
<path d="M408.263 165.507L408.263 165.507C413.942 148.752 432.206 139.617 449.019 145.202L449.019 145.202C457.151 147.913 463.735 153.596 467.543 161.28C471.351 168.931 471.932 177.617 469.189 185.751L469.189 185.752C464.607 199.182 451.99 207.703 438.534 207.703C435.178 207.703 431.757 207.187 428.432 206.057C428.431 206.057 428.431 206.057 428.431 206.057L428.512 205.82C420.443 203.129 413.911 197.491 410.133 189.868C406.354 182.276 405.778 173.659 408.5 165.587L408.263 165.507ZM408.263 165.507C405.52 173.642 406.101 182.328 409.909 189.979L408.263 165.507ZM411.573 189.148L411.573 189.147C407.985 181.968 407.445 173.805 410.017 166.148C414.304 153.504 426.182 145.497 438.854 145.497C441.999 145.497 445.205 145.973 448.347 147.053L448.349 147.053C456.003 149.595 462.194 154.963 465.783 162.175L465.783 162.175C469.371 169.354 469.911 177.517 467.339 185.175C462.003 200.933 444.822 209.511 429.007 204.269C421.353 201.728 415.162 196.359 411.573 189.148Z" fill="black" stroke="black" stroke-width="0.5"/>
<path d="M453.799 175.686C453.799 171.59 452.172 167.662 449.276 164.766C446.38 161.87 442.452 160.242 438.356 160.242M453.799 175.686H422.912M453.799 175.686C453.799 179.782 452.172 183.71 449.276 186.606C446.38 189.503 442.452 191.13 438.356 191.13M438.356 160.242C434.26 160.242 430.332 161.87 427.435 164.766C424.539 167.662 422.912 171.59 422.912 175.686M438.356 160.242C437.521 160.242 431.677 167.156 431.677 175.686C431.677 184.216 437.521 191.13 438.356 191.13M438.356 160.242C439.191 160.242 445.034 167.156 445.034 175.686C445.034 184.216 439.191 191.13 438.356 191.13M422.912 175.686C422.912 179.782 424.539 183.71 427.435 186.606C430.332 189.503 434.26 191.13 438.356 191.13" stroke="black" stroke-width="2.50234" stroke-linecap="round" stroke-linejoin="round"/>
<g clip-path="url(#clip0_26_461)">
<path d="M125.575 281.509L157.051 298.659L125.575 315.947L108.356 347.354L91.1371 315.947L59.6611 298.659L91.1371 281.509L108.356 249.964L125.575 281.509Z" fill="black" stroke="white" stroke-miterlimit="10"/>
</g>
<g clip-path="url(#clip1_26_461)">
<path d="M311.626 368.535L329.227 363.349L324.091 381L329.227 398.601L311.626 393.465L293.975 398.601L299.161 381L293.975 363.349L311.626 368.535Z" fill="black" stroke="white" stroke-miterlimit="10"/>
</g>
<circle cx="190.5" cy="37.5" r="23.5" fill="black"/>
<defs>
<clipPath id="clip0_26_461">
<rect width="70.3259" height="70.3259" fill="white" transform="translate(108.356 249) rotate(45)"/>
</clipPath>
<clipPath id="clip1_26_461">
<rect width="36" height="36" fill="white" transform="translate(293.627 363)"/>
</clipPath>
</defs>
</svg>
